#N canvas 0 23 1440 810 10;
#X obj 228 280 coll;
#C restore;
#X obj 228 251 pack f f;
#X obj 228 193 t b f;
#X obj 228 170 iter;
#X obj 228 146 thresh;
#X obj 228 223 counter 0 0 15;
#X obj 228 123 random 2;
#X obj 228 97 uzi 16;
#X obj 228 76 bng 15 250 50 0 empty empty empty 17 7 0 10 -262144 -1
-1;
#X obj 343 420 *~;
#X obj 381 405 line~;
#X obj 380 352 bng 15 250 50 0 empty empty empty 17 7 0 10 -262144
-1 -1;
#X obj 315 391 osc~;
#X obj 315 367 mtof;
#X obj 380 327 sel 1;
#X obj 410 51 tgl 15 0 empty empty empty 17 7 0 10 -258113 -1 -1 0
1;
#X floatatom 315 339 5 0 0 0 - - -;
#X obj 315 287 random 5;
#X obj 382 209 bng 15 250 50 0 empty empty empty 17 7 0 10 -262144
-1 -1;
#X obj 448 246 counter 0 0 3;
#X obj 448 305 bng 15 250 50 0 empty empty empty 17 7 0 10 -262144
-1 -1;
#X obj 547 410 *~;
#X obj 620 341 bng 15 250 50 0 empty empty empty 17 7 0 10 -262144
-1 -1;
#X obj 614 292 sel 1;
#X obj 517 482 *~;
#X obj 572 480 *~;
#X obj 771 496 coll;
#C restore;
#X obj 771 467 pack f f;
#X obj 771 409 t b f;
#X obj 771 386 iter;
#X obj 771 362 thresh;
#X obj 771 439 counter 0 0 15;
#X obj 771 282 uzi 16;
#X obj 771 261 bng 15 250 50 0 empty empty empty 17 7 0 10 -262144
-1 -1;
#X obj 771 308 random 100;
#X obj 771 334 / 100;
#X obj 870 511 coll;
#C restore;
#X obj 870 482 pack f f;
#X obj 870 424 t b f;
#X obj 870 401 iter;
#X obj 870 377 thresh;
#X obj 870 454 counter 0 0 15;
#X obj 870 297 uzi 16;
#X obj 855 264 bng 15 250 50 0 empty empty empty 17 7 0 10 -262144
-1 -1;
#X obj 870 323 random 100;
#X obj 870 349 / 100;
#X obj 611 266 coll;
#C restore;
#X obj 611 237 pack f f;
#X obj 611 179 t b f;
#X obj 611 156 iter;
#X obj 611 132 thresh;
#X obj 611 109 random 2;
#X obj 611 62 bng 15 250 50 0 empty empty empty 17 7 0 10 -262144 -1
-1;
#X obj 62 401 *~;
#X obj 99 377 line~;
#X obj 99 309 bng 15 250 50 0 empty empty empty 17 7 0 10 -262144 -1
-1;
#X obj 99 284 sel 1;
#X obj 23 494 *~;
#X obj 60 474 *~;
#X obj 99 251 coll;
#C restore;
#X obj 99 222 pack f f;
#X obj 99 164 t b f;
#X obj 99 141 iter;
#X obj 99 117 thresh;
#X obj 99 194 counter 0 0 15;
#X obj 99 94 random 2;
#X obj 99 68 uzi 16;
#X obj 99 47 bng 15 250 50 0 empty empty empty 17 7 0 10 -262144 -1
-1;
#X obj 62 430 *~ 0.4;
#X obj 533 93 bng 15 250 50 0 empty empty empty 17 7 0 10 -262144 -1
-1;
#X obj 533 68 sel 1;
#X obj 503 419 svf~;
#X obj 343 39 key;
#X obj 343 66 sel 32;
#X text 414 11 PRESS SPACEBAR TO START;
#X obj 343 461 *~ 0.5;
#X obj 677 307 sel 0 1;
#X obj 677 281 random 2;
#X obj 592 310 bng 15 250 50 0 empty empty empty 17 7 0 10 -262144
-1 -1;
#X obj 448 275 sel 0;
#X obj 437 474 del 100;
#X obj 422 515 bng 15 250 50 0 empty empty empty 17 7 0 10 -262144
-1 -1;
#X obj 426 444 sel 0;
#X obj 425 411 random 3;
#X obj 362 162 sel 0;
#X obj 407 112 counter 0 0 15;
#X obj 160 7 pddp/dsp;
#X obj 532 447 *~ 0.2;
#X obj 390 598 *~;
#X obj 611 83 uzi 16;
#X obj 405 88 metro 100;
#X obj 611 209 counter 0 0 15;
#X obj 603 407 line~;
#X obj 245 631 coll;
#C restore;
#X obj 245 602 pack f f;
#X obj 245 544 t b f;
#X obj 245 521 iter;
#X obj 245 497 thresh;
#X obj 245 574 counter 0 0 15;
#X obj 245 417 uzi 16;
#X obj 245 396 bng 15 250 50 0 empty empty empty 17 7 0 10 -262144
-1 -1;
#X obj 245 443 random 100;
#X obj 245 469 / 100;
#X obj 146 631 coll;
#C restore;
#X obj 146 602 pack f f;
#X obj 146 544 t b f;
#X obj 146 521 iter;
#X obj 146 497 thresh;
#X obj 146 574 counter 0 0 15;
#X obj 146 417 uzi 16;
#X obj 146 396 bng 15 250 50 0 empty empty empty 17 7 0 10 -262144
-1 -1;
#X obj 146 443 random 100;
#X obj 146 469 / 100;
#X text 33 384 ^ 1;
#X msg 699 621 disconnect;
#X obj 611 725 sendOSC;
#X msg 611 582 connect 127.0.0.1 8080;
#X msg 619 362 2 \, 0 50;
#X obj 488 385 osc~ 1000;
#X obj 806 677 unpack;
#X floatatom 990 586 5 0 0 0 - - -;
#X floatatom 1022 628 5 0 0 0 - - -;
#X floatatom 1055 584 5 0 0 0 - - -;
#X obj 631 522 loadbang;
#X obj 23 262 del 100;
#X obj 53 312 bng 15 250 50 0 empty empty empty 17 7 0 10 -262144 -1
-1;
#X obj 22 229 sel 0;
#X obj 37 189 random 3;
#X floatatom 14 336 5 0 0 0 - - -;
#X obj 15 282 loadbang;
#X obj 9 365 osc~;
#X msg 70 319 195;
#X floatatom 1105 591 5 0 0 0 - - -;
#X floatatom 1219 591 5 0 0 0 - - -;
#N canvas 21 103 938 560 countup 0;
#X obj 214 217 f;
#X obj 248 216 + 1;
#X msg 208 186 bang;
#X obj 171 130 inlet;
#X obj 201 283 outlet;
#X obj 282 105 inlet;
#X connect 0 0 1 0;
#X connect 0 0 4 0;
#X connect 1 0 0 1;
#X connect 2 0 1 0;
#X connect 2 0 0 0;
#X connect 3 0 2 0;
#X connect 5 0 0 0;
#X restore 1109 403 pd countup;
#N canvas 21 103 938 560 countup 0;
#X obj 214 217 f;
#X obj 248 216 + 1;
#X msg 208 186 bang;
#X obj 171 130 inlet;
#X obj 201 283 outlet;
#X obj 282 105 inlet;
#X connect 0 0 1 0;
#X connect 0 0 4 0;
#X connect 1 0 0 1;
#X connect 2 0 1 0;
#X connect 2 0 0 0;
#X connect 3 0 2 0;
#X connect 5 0 0 0;
#X restore 1197 398 pd countup;
#N canvas 21 103 938 560 countup 0;
#X obj 214 217 f;
#X obj 248 216 + 1;
#X msg 208 186 bang;
#X obj 171 130 inlet;
#X obj 201 283 outlet;
#X obj 282 105 inlet;
#X connect 0 0 1 0;
#X connect 0 0 4 0;
#X connect 1 0 0 1;
#X connect 2 0 1 0;
#X connect 2 0 0 0;
#X connect 3 0 2 0;
#X connect 5 0 0 0;
#X restore 1295 347 pd countup;
#X obj 989 657 pack f f f f f f;
#X msg 839 706 send /test \$1 \$2 \$3 \$4 \$5;
#X msg 1277 303 bang;
#X msg 1103 187 0;
#X obj 1103 245 s reset;
#X obj 982 369 r reset;
#X obj 1088 342 r reset;
#X obj 1138 355 r reset;
#X obj 1211 362 r reset;
#X obj 1353 306 r reset;
#X text 1147 184 < click the 0 to reset;
#N canvas 21 103 938 560 countup 0;
#X obj 214 217 f;
#X obj 248 216 + 1;
#X msg 208 186 bang;
#X obj 171 130 inlet;
#X obj 201 283 outlet;
#X obj 282 105 inlet;
#X msg 276 159 0;
#X connect 0 0 1 0;
#X connect 0 0 4 0;
#X connect 1 0 0 1;
#X connect 2 0 1 0;
#X connect 2 0 0 0;
#X connect 3 0 2 0;
#X connect 5 0 0 0;
#X restore 974 427 pd countup;
#N canvas 21 103 938 560 countup 0;
#X obj 214 217 f;
#X obj 248 216 + 1;
#X msg 208 186 bang;
#X obj 171 130 inlet;
#X obj 201 283 outlet;
#X obj 282 105 inlet;
#X msg 276 159 0;
#X connect 0 0 1 0;
#X connect 0 0 4 0;
#X connect 1 0 0 1;
#X connect 2 0 1 0;
#X connect 2 0 0 0;
#X connect 3 0 2 0;
#X connect 5 0 0 0;
#X restore 1042 407 pd countup;
#X msg 1138 208 349;
#X text 1182 205 < click the 0 to jump up;
#X obj 978 505 mod 125;
#X obj 1045 484 mod 125;
#X obj 1113 481 mod 125;
#X obj 1197 477 mod 125;
#X obj 1279 486 mod 125;
#X obj 193 340 print;
#X obj 193 314 switch 2;
#X obj 183 261 tgl 15 0 empty empty empty 17 7 0 10 -262144 -1 -1 0
1;
#X msg 16 303 600;
#X msg 99 349 2.5 \, 0 300;
#X obj 178 239 r randomPitchBang;
#X obj 50 361 spigot;
#X obj 70 414 *~;
#X obj 99 402 r bang;
#X obj 1191 646 s bang;
#X obj 116 435 tgl 15 0 empty empty empty 17 7 0 10 -262144 -1 -1 0
1;
#X obj 1193 627 oneshot;
#X msg 1282 603 clear;
#N canvas 423 302 450 300 bang_in_range 0;
#X floatatom 59 166 5 0 0 0 - - -;
#X floatatom 266 164 5 0 0 0 - - -;
#X floatatom 59 87 5 0 0 0 - - -;
#X obj 293 214 bng 15 250 50 0 empty empty empty 17 7 0 10 -262144
-1 -1;
#X obj 266 189 sel 0;
#X obj 59 114 expr $f1 \; if ($f1 <=$f3 && $f1 >=$f2 \, $f1 \, 0);
#X obj 59 45 inlet;
#X obj 162 45 inlet lower bound;
#X obj 266 75 inlet upper bound;
#X obj 293 239 outlet;
#X connect 1 0 4 0;
#X connect 2 0 5 0;
#X connect 3 0 9 0;
#X connect 4 1 3 0;
#X connect 5 0 0 0;
#X connect 5 1 1 0;
#X connect 6 0 2 0;
#X connect 7 0 5 1;
#X connect 8 0 5 2;
#X restore 1284 543 pd bang_in_range;
#X floatatom 1330 509 5 0 0 0 - - -;
#X floatatom 1370 507 5 0 0 0 - - -;
#X floatatom 1316 391 5 0 0 0 - - -;
#X obj 561 607 noise~;
#X obj 436 597 tgl 15 0 empty empty empty 17 7 0 10 -262144 -1 -1 1
1;
#X obj 440 622 sel 0;
#X obj 502 637 tgl 15 0 empty empty empty 17 7 0 10 -262144 -1 -1 0
1;
#X obj 540 673 *~;
#X obj 548 632 *~ 0.03;
#X obj 520 572 loadbang;
#X obj 481 566 r bang2;
#X msg 498 605 0;
#X obj 517 769 bng 15 250 50 0 empty empty empty 17 7 0 10 -262144
-1 -1;
#X obj 438 752 oneshot;
#X msg 345 763 clear;
#X obj 40 692 osc~;
#X obj 40 668 mtof;
#X floatatom 40 640 5 0 0 0 - - -;
#X obj 40 588 random 5;
#X obj 40 616 + 23;
#X obj 183 720 line~;
#X obj 182 667 bng 15 250 50 0 empty empty empty 17 7 0 10 -262144
-1 -1;
#X obj 182 642 sel 1;
#X msg 176 692 0.01 \, 0 \, 20;
#X obj 40 714 *~;
#X obj 40 737 *~;
#X obj 89 721 tgl 15 0 empty empty empty 17 7 0 10 -262144 -1 -1 0
1;
#X obj 95 685 r bang2;
#X obj 297 687 s bang2;
#X obj 308 659 tgl 15 0 empty empty empty 17 7 0 10 -262144 -1 -1 0
1;
#X obj 1248 677 s bang2;
#X obj 1256 650 bng 15 250 50 0 empty empty empty 17 7 0 10 -262144
-1 -1;
#X obj 505 697 delay 5000;
#X msg 436 577 1;
#X obj 103 757 *~;
#X obj 439 704 sel 0;
#X obj 501 667 sel 1;
#X obj 36 760 *~ 0.1;
#X msg 1337 457 500;
#X msg 1377 456 510;
#X obj 1335 418 loadbang;
#X text 1326 508 comment;
#N canvas 423 302 450 300 bang_in_range 0;
#X floatatom 59 166 5 0 0 0 - - -;
#X floatatom 266 164 5 0 0 0 - - -;
#X floatatom 59 87 5 0 0 0 - - -;
#X obj 293 214 bng 15 250 50 0 empty empty empty 17 7 0 10 -262144
-1 -1;
#X obj 266 189 sel 0;
#X obj 59 114 expr $f1 \; if ($f1 <=$f3 && $f1 >=$f2 \, $f1 \, 0);
#X obj 59 45 inlet;
#X obj 162 45 inlet lower bound;
#X obj 266 75 inlet upper bound;
#X obj 293 239 outlet;
#X connect 1 0 4 0;
#X connect 2 0 5 0;
#X connect 3 0 9 0;
#X connect 4 1 3 0;
#X connect 5 0 0 0;
#X connect 5 1 1 0;
#X connect 6 0 2 0;
#X connect 7 0 5 1;
#X connect 8 0 5 2;
#X restore 1302 641 pd bang_in_range;
#X obj 764 539 sel 1;
#X obj 768 564 bng 15 250 50 0 empty empty empty 17 7 0 10 -262144
-1 -1;
#X obj 658 429 bng 15 250 50 0 empty empty empty 17 7 0 10 -262144
-1 -1;
#X obj 631 492 *~;
#X obj 694 484 line~;
#X msg 385 377 4 \, 0 100;
#X obj 315 315 + 30;
#X msg 692 451 1 \, 0 100;
#X obj 630 455 osc~ 16000;
#X obj 124 332 + 85;
#X obj 124 304 random 50;
#X msg 734 753 start;
#X obj 707 698 t b b;
#X msg 830 780 stop;
#X obj 842 754 bng 15 250 50 0 empty empty empty 17 7 0 10 -258113
-1 -1;
#X obj 734 725 del 5;
#X obj 565 781 writesf~ 2;
#X obj 360 691 dac~ 1 2;
#X msg 596 743 open generative2.wav;
#X connect 0 0 14 0;
#X connect 0 0 158 2;
#X connect 1 0 0 0;
#X connect 2 0 5 0;
#X connect 2 1 1 1;
#X connect 3 0 2 0;
#X connect 4 0 3 0;
#X connect 5 0 1 0;
#X connect 6 0 4 0;
#X connect 7 0 6 0;
#X connect 8 0 7 0;
#X connect 9 0 75 0;
#X connect 10 0 9 1;
#X connect 11 0 219 0;
#X connect 11 0 83 0;
#X connect 11 0 139 0;
#X connect 11 0 148 0;
#X connect 12 0 9 0;
#X connect 13 0 12 0;
#X connect 14 0 11 0;
#X connect 15 0 70 0;
#X connect 15 0 90 0;
#X connect 15 0 205 1;
#X connect 16 0 13 0;
#X connect 17 0 220 0;
#X connect 18 0 17 0;
#X connect 18 0 19 0;
#X connect 18 0 189 0;
#X connect 18 0 192 0;
#X connect 19 0 79 0;
#X connect 20 0 8 0;
#X connect 20 0 52 0;
#X connect 20 0 33 0;
#X connect 20 0 43 0;
#X connect 20 0 67 0;
#X connect 20 0 100 0;
#X connect 20 0 110 0;
#X connect 20 0 224 0;
#X connect 21 0 87 0;
#X connect 22 0 117 0;
#X connect 23 0 78 0;
#X connect 24 0 88 0;
#X connect 25 0 88 0;
#X connect 26 0 24 1;
#X connect 26 0 214 0;
#X connect 27 0 26 0;
#X connect 28 0 31 0;
#X connect 28 1 27 1;
#X connect 29 0 28 0;
#X connect 30 0 29 0;
#X connect 31 0 27 0;
#X connect 32 0 34 0;
#X connect 33 0 32 0;
#X connect 34 0 35 0;
#X connect 35 0 30 0;
#X connect 36 0 25 1;
#X connect 37 0 36 0;
#X connect 38 0 41 0;
#X connect 38 1 37 1;
#X connect 39 0 38 0;
#X connect 40 0 39 0;
#X connect 41 0 37 0;
#X connect 42 0 44 0;
#X connect 43 0 42 0;
#X connect 44 0 45 0;
#X connect 45 0 40 0;
#X connect 46 0 23 0;
#X connect 47 0 46 0;
#X connect 48 0 91 0;
#X connect 48 1 47 1;
#X connect 49 0 48 0;
#X connect 50 0 49 0;
#X connect 51 0 50 0;
#X connect 52 0 89 0;
#X connect 53 0 164 0;
#X connect 54 0 53 1;
#X connect 55 0 161 0;
#X connect 55 0 127 0;
#X connect 55 0 139 0;
#X connect 55 0 134 0;
#X connect 56 0 55 0;
#X connect 57 0 88 0;
#X connect 58 0 88 0;
#X connect 59 0 56 0;
#X connect 60 0 59 0;
#X connect 61 0 64 0;
#X connect 61 1 60 1;
#X connect 62 0 61 0;
#X connect 63 0 62 0;
#X connect 64 0 60 0;
#X connect 65 0 63 0;
#X connect 66 0 65 0;
#X connect 67 0 66 0;
#X connect 68 0 57 0;
#X connect 68 0 58 0;
#X connect 69 0 5 2;
#X connect 69 0 19 2;
#X connect 69 0 31 2;
#X connect 69 0 41 2;
#X connect 69 0 64 2;
#X connect 69 0 85 2;
#X connect 69 0 91 2;
#X connect 69 0 98 2;
#X connect 69 0 108 2;
#X connect 70 0 69 0;
#X connect 71 0 21 0;
#X connect 72 0 73 0;
#X connect 73 0 15 0;
#X connect 75 0 88 0;
#X connect 76 0 22 0;
#X connect 76 1 216 0;
#X connect 77 0 76 0;
#X connect 78 0 77 0;
#X connect 78 0 136 0;
#X connect 78 0 139 0;
#X connect 78 0 135 0;
#X connect 79 0 20 0;
#X connect 80 0 81 0;
#X connect 81 0 219 0;
#X connect 81 0 139 0;
#X connect 81 0 149 0;
#X connect 82 0 80 0;
#X connect 83 0 82 0;
#X connect 84 0 18 0;
#X connect 85 0 0 0;
#X connect 85 0 46 0;
#X connect 85 0 36 0;
#X connect 85 0 59 0;
#X connect 85 0 26 0;
#X connect 85 0 84 0;
#X connect 85 0 93 0;
#X connect 85 0 103 0;
#X connect 87 0 24 0;
#X connect 87 0 25 0;
#X connect 88 0 231 0;
#X connect 88 0 231 1;
#X connect 88 0 230 0;
#X connect 88 0 230 1;
#X connect 89 0 51 0;
#X connect 90 0 85 0;
#X connect 91 0 47 0;
#X connect 92 0 21 1;
#X connect 93 0 58 1;
#X connect 94 0 93 0;
#X connect 95 0 98 0;
#X connect 95 1 94 1;
#X connect 96 0 95 0;
#X connect 97 0 96 0;
#X connect 98 0 94 0;
#X connect 99 0 101 0;
#X connect 100 0 99 0;
#X connect 101 0 102 0;
#X connect 102 0 97 0;
#X connect 103 0 57 1;
#X connect 104 0 103 0;
#X connect 105 0 108 0;
#X connect 105 1 104 1;
#X connect 106 0 105 0;
#X connect 107 0 106 0;
#X connect 108 0 104 0;
#X connect 109 0 111 0;
#X connect 110 0 109 0;
#X connect 111 0 112 0;
#X connect 112 0 107 0;
#X connect 114 0 115 0;
#X connect 116 0 115 0;
#X connect 117 0 92 0;
#X connect 118 0 71 0;
#X connect 118 0 21 0;
#X connect 120 0 137 0;
#X connect 121 0 137 1;
#X connect 122 0 137 2;
#X connect 123 0 116 0;
#X connect 124 0 125 0;
#X connect 125 0 139 0;
#X connect 126 0 124 0;
#X connect 127 0 126 0;
#X connect 128 0 130 0;
#X connect 129 0 160 0;
#X connect 130 0 53 0;
#X connect 131 0 128 0;
#X connect 132 0 137 3;
#X connect 133 0 137 4;
#X connect 134 0 154 0;
#X connect 135 0 155 0;
#X connect 136 0 156 0;
#X connect 136 0 173 0;
#X connect 137 0 138 0;
#X connect 138 0 115 0;
#X connect 139 0 136 0;
#X connect 140 0 141 0;
#X connect 142 0 148 1;
#X connect 143 0 149 1;
#X connect 144 0 134 1;
#X connect 145 0 135 1;
#X connect 146 0 136 1;
#X connect 148 0 152 0;
#X connect 149 0 153 0;
#X connect 150 0 141 0;
#X connect 152 0 120 0;
#X connect 153 0 121 0;
#X connect 154 0 122 0;
#X connect 155 0 132 0;
#X connect 156 0 133 0;
#X connect 158 0 157 0;
#X connect 159 0 163 1;
#X connect 159 0 131 0;
#X connect 160 0 128 0;
#X connect 161 0 54 0;
#X connect 162 0 159 0;
#X connect 164 0 68 0;
#X connect 165 0 167 0;
#X connect 167 0 164 1;
#X connect 168 0 166 0;
#X connect 169 0 168 0;
#X connect 170 0 168 0;
#X connect 171 0 170 1;
#X connect 172 0 170 2;
#X connect 173 0 170 0;
#X connect 174 0 179 0;
#X connect 175 0 176 0;
#X connect 175 0 88 1;
#X connect 176 0 177 0;
#X connect 177 0 178 1;
#X connect 177 0 207 0;
#X connect 178 0 231 0;
#X connect 178 0 231 1;
#X connect 179 0 178 0;
#X connect 180 0 175 0;
#X connect 181 0 182 0;
#X connect 182 0 175 0;
#X connect 183 0 184 0;
#X connect 184 0 177 0;
#X connect 184 0 204 0;
#X connect 185 0 184 0;
#X connect 186 0 195 0;
#X connect 187 0 186 0;
#X connect 188 0 187 0;
#X connect 189 0 190 0;
#X connect 190 0 188 0;
#X connect 192 0 194 0;
#X connect 193 0 192 0;
#X connect 194 0 191 0;
#X connect 194 0 196 1;
#X connect 195 0 196 0;
#X connect 196 0 208 0;
#X connect 197 0 195 1;
#X connect 198 0 197 0;
#X connect 200 0 199 0;
#X connect 202 0 201 0;
#X connect 203 0 183 0;
#X connect 204 0 175 0;
#X connect 205 0 88 0;
#X connect 206 0 184 0;
#X connect 207 0 203 0;
#X connect 208 0 205 0;
#X connect 209 0 171 0;
#X connect 210 0 172 0;
#X connect 211 0 209 0;
#X connect 211 0 210 0;
#X connect 214 0 215 0;
#X connect 216 0 221 0;
#X connect 218 0 217 1;
#X connect 219 0 10 0;
#X connect 220 0 16 0;
#X connect 221 0 218 0;
#X connect 222 0 217 0;
#X connect 223 0 128 0;
#X connect 223 0 163 0;
#X connect 224 0 223 0;
#X connect 225 0 230 0;
#X connect 226 0 232 0;
#X connect 226 1 229 0;
#X connect 227 0 230 0;
#X connect 228 0 226 0;
#X connect 229 0 225 0;
#X connect 232 0 230 0;
